<svg width="77" height="77" viewBox="0 0 77 77" fill="none" xmlns="http://www.w3.org/2000/svg">
<path d="M46.4824 16.8408L47.0586 17.8389L48.1709 17.54L63.5996 13.3994L59.46 28.8291L59.1611 29.9414L60.1592 30.5176L73.9971 38.5L60.1592 46.4824L59.1611 47.0586L59.46 48.1709L63.5996 63.5996L48.1709 59.46L47.0586 59.1611L46.4824 60.1592L38.5 73.9971L30.5176 60.1592L29.9414 59.1611L28.8291 59.46L13.3994 63.5996L17.54 48.1709L17.8389 47.0586L16.8408 46.4824L3.00195 38.5L16.8408 30.5176L17.8389 29.9414L17.54 28.8291L13.3994 13.3994L28.8291 17.54L29.9414 17.8389L30.5176 16.8408L38.5 3.00195L46.4824 16.8408Z" fill="#058CD7" stroke="black" stroke-width="3"/>
</svg>
