<svg width="66" height="66" viewBox="0 0 66 66" fill="none" xmlns="http://www.w3.org/2000/svg">
<mask id="path-1-inside-1_1155_532" fill="white">
<path d="M51.9246 27.3678C53.231 27.0177 54.588 27.7926 54.7941 29.1293C55.4801 33.5788 54.8177 38.1529 52.8622 42.2497C50.5534 47.0865 46.594 50.9403 41.6965 53.1174C36.7991 55.2945 31.2854 55.6519 26.1479 54.1253C21.0103 52.5987 16.5865 49.2883 13.6726 44.7901C10.7588 40.2919 9.54631 34.9012 10.2535 29.5886C10.9607 24.2759 13.541 19.3901 17.5301 15.8107C21.5192 12.2314 26.6549 10.1935 32.0129 10.0639C36.5512 9.95421 40.9964 11.2197 44.7766 13.6648C45.9122 14.3994 46.0646 15.9546 45.211 17.0037C44.3575 18.0528 42.822 18.1945 41.6646 17.4946C38.8078 15.7672 35.5024 14.8788 32.1313 14.9603C27.9396 15.0616 23.9218 16.6559 20.8011 19.4561C17.6804 22.2564 15.6617 26.0786 15.1085 30.2348C14.5552 34.391 15.5038 38.6082 17.7833 42.1273C20.0629 45.6463 23.5238 48.2361 27.543 49.4304C31.5621 50.6247 35.8756 50.3451 39.707 48.6419C43.5384 46.9387 46.6359 43.9238 48.4421 40.1399C49.8947 37.0967 50.4352 33.7169 50.0267 30.4035C49.8612 29.0612 50.6182 27.7178 51.9246 27.3678Z"/>
</mask>
<path d="M51.9246 27.3678C53.231 27.0177 54.588 27.7926 54.7941 29.1293C55.4801 33.5788 54.8177 38.1529 52.8622 42.2497C50.5534 47.0865 46.594 50.9403 41.6965 53.1174C36.7991 55.2945 31.2854 55.6519 26.1479 54.1253C21.0103 52.5987 16.5865 49.2883 13.6726 44.7901C10.7588 40.2919 9.54631 34.9012 10.2535 29.5886C10.9607 24.2759 13.541 19.3901 17.5301 15.8107C21.5192 12.2314 26.6549 10.1935 32.0129 10.0639C36.5512 9.95421 40.9964 11.2197 44.7766 13.6648C45.9122 14.3994 46.0646 15.9546 45.211 17.0037C44.3575 18.0528 42.822 18.1945 41.6646 17.4946C38.8078 15.7672 35.5024 14.8788 32.1313 14.9603C27.9396 15.0616 23.9218 16.6559 20.8011 19.4561C17.6804 22.2564 15.6617 26.0786 15.1085 30.2348C14.5552 34.391 15.5038 38.6082 17.7833 42.1273C20.0629 45.6463 23.5238 48.2361 27.543 49.4304C31.5621 50.6247 35.8756 50.3451 39.707 48.6419C43.5384 46.9387 46.6359 43.9238 48.4421 40.1399C49.8947 37.0967 50.4352 33.7169 50.0267 30.4035C49.8612 29.0612 50.6182 27.7178 51.9246 27.3678Z" fill="#FB7DA8" stroke="black" stroke-width="2" mask="url(#path-1-inside-1_1155_532)"/>
<path d="M24.7437 28.8877L22.4512 37.6475H20.188L23.5205 26.9834H24.9341L24.7437 28.8877ZM26.5527 37.6475L24.2456 28.8877L24.0332 26.9834H25.4688L28.8306 37.6475H26.5527ZM26.6333 33.6704V35.4502H21.8213V33.6704H26.6333ZM36.9312 32.0444V36.439C36.7798 36.6001 36.5576 36.7881 36.2646 37.0029C35.9766 37.2129 35.5981 37.3984 35.1294 37.5596C34.6655 37.7158 34.0991 37.7939 33.4302 37.7939C32.8394 37.7939 32.3022 37.7012 31.8188 37.5156C31.3403 37.3301 30.9277 37.0493 30.5811 36.6733C30.2393 36.2925 29.978 35.8188 29.7974 35.2524C29.6167 34.6812 29.5264 34.0049 29.5264 33.2236V31.4072C29.5264 30.6357 29.6118 29.9644 29.7827 29.3931C29.9585 28.8169 30.2124 28.3384 30.5444 27.9575C30.8765 27.5767 31.272 27.2935 31.731 27.1079C32.1948 26.9224 32.7173 26.8296 33.2983 26.8296C34.0991 26.8296 34.7559 26.9639 35.2686 27.2324C35.7861 27.501 36.1768 27.8989 36.4404 28.4263C36.709 28.9536 36.8701 29.6006 36.9238 30.3672H34.8511C34.8169 29.918 34.7412 29.5664 34.624 29.3125C34.5117 29.0586 34.353 28.8779 34.1479 28.7705C33.9429 28.6582 33.6768 28.6021 33.3496 28.6021C33.0664 28.6021 32.8198 28.6533 32.6099 28.7559C32.3999 28.8535 32.2241 29.0146 32.0825 29.2393C31.9409 29.4639 31.8359 29.752 31.7676 30.1035C31.6992 30.4551 31.665 30.8848 31.665 31.3926V33.2236C31.665 33.7266 31.7041 34.1562 31.7822 34.5127C31.8604 34.8691 31.9751 35.1597 32.1265 35.3843C32.2827 35.6089 32.478 35.7725 32.7124 35.875C32.9517 35.9727 33.2324 36.0215 33.5547 36.0215C33.8135 36.0215 34.021 35.9946 34.1772 35.9409C34.3335 35.8872 34.458 35.8311 34.5508 35.7725C34.6484 35.709 34.729 35.6602 34.7925 35.626V33.6631H33.2617V32.0444H36.9312ZM44.5923 35.875V37.6475H39.9561V35.875H44.5923ZM40.6226 26.9834V37.6475H38.4766V26.9834H40.6226ZM43.9697 31.3047V33.0259H39.9561V31.3047H43.9697ZM44.5776 26.9834V28.7632H39.9561V26.9834H44.5776Z" fill="black"/>
<line x1="46" y1="21.6475" x2="52" y2="21.6475" stroke="black" stroke-width="2" stroke-linecap="round"/>
<line x1="49" y1="24.6475" x2="49" y2="18.6475" stroke="black" stroke-width="2" stroke-linecap="round"/>
</svg>
