<svg width="50" height="50" viewBox="0 0 50 50" fill="none" xmlns="http://www.w3.org/2000/svg">
<path d="M3.125 18.9583C3.125 13.4161 3.125 10.6451 4.20358 8.52822C5.15233 6.6662 6.6662 5.15233 8.52822 4.20358C10.6451 3.125 13.4161 3.125 18.9583 3.125H31.0417C36.5839 3.125 39.3549 3.125 41.4718 4.20358C43.3338 5.15233 44.8477 6.6662 45.7964 8.52822C46.875 10.6451 46.875 13.4161 46.875 18.9583V31.0417C46.875 36.5839 46.875 39.3549 45.7964 41.4718C44.8477 43.3338 43.3338 44.8477 41.4718 45.7964C39.3549 46.875 36.5839 46.875 31.0417 46.875H18.9583C13.4161 46.875 10.6451 46.875 8.52822 45.7964C6.6662 44.8477 5.15233 43.3338 4.20358 41.4718C3.125 39.3549 3.125 36.5839 3.125 31.0417V18.9583Z" fill="#49021F"/>
<path d="M18.1126 15.9305V35.1051C18.1126 35.3059 18.0246 35.4063 17.8485 35.4061H14.2972C14.1405 35.4061 14.0622 35.3058 14.0625 35.1051V15.9305C14.0625 15.7701 14.1505 15.6898 14.3266 15.6896H17.8778C18.0126 15.67 18.1318 15.7923 18.1126 15.9305Z" fill="#FF3366"/>
<path d="M28.6196 35.7071C27.2687 35.7281 25.9303 35.4402 24.7015 34.8642C22.0928 33.6259 20.9592 30.8852 20.9595 28.0613C20.937 25.2443 22.429 22.5602 24.863 21.2282C26.5431 20.2737 28.5195 20.0312 30.4099 20.2048V14.2748C30.4099 14.1346 30.4686 14.0641 30.586 14.0641H34.2839C34.385 14.0493 34.4745 14.141 34.4601 14.2447V32.0347C34.4601 32.7687 34.5328 33.5001 34.5775 34.2321C34.5847 34.3571 34.5123 34.4808 34.4013 34.5331C33.4473 34.9412 32.4536 35.2439 31.4371 35.4361C30.5077 35.6121 29.5648 35.7027 28.6196 35.7071ZM30.4099 31.9745V23.7568C27.7414 23.0153 25.1267 25.0527 25.1271 27.8807C25.0625 30.8423 27.7033 32.7864 30.4099 31.9745Z" fill="#FF3366"/>
</svg>
