<svg width="813" height="187" viewBox="0 0 813 187" fill="none" xmlns="http://www.w3.org/2000/svg">
<mask id="path-1-inside-1_339_2150" fill="white">
<path d="M766 0C791.957 1.16289e-05 813 21.0426 813 47V107C813 132.957 791.957 154 766 154H285.021L271.753 184.643C270.709 187.053 267.291 187.053 266.247 184.643L252.979 154H47C21.0426 154 0 132.957 0 107V47C0 21.0426 21.0426 1.71132e-07 47 0H766Z"/>
</mask>
<path d="M766 0C791.957 1.16289e-05 813 21.0426 813 47V107C813 132.957 791.957 154 766 154H285.021L271.753 184.643C270.709 187.053 267.291 187.053 266.247 184.643L252.979 154H47C21.0426 154 0 132.957 0 107V47C0 21.0426 21.0426 1.71132e-07 47 0H766Z" fill="#FB7DA8"/>
<path d="M766 0V-2V-2V0ZM766 154V156V154ZM285.021 154V152H283.708L283.186 153.205L285.021 154ZM271.753 184.643L273.588 185.437L273.588 185.437L271.753 184.643ZM266.247 184.643L264.412 185.437L264.412 185.437L266.247 184.643ZM252.979 154L254.814 153.205L254.292 152H252.979V154ZM47 154V156V156V154ZM47 0V-2V0ZM766 0V2C790.853 2.00001 811 22.1472 811 47H813H815C815 19.9381 793.062 -1.99999 766 -2V0ZM813 47H811V107H813H815V47H813ZM813 107H811C811 131.853 790.853 152 766 152V154V156C793.062 156 815 134.062 815 107H813ZM766 154V152H285.021V154V156H766V154ZM285.021 154L283.186 153.205L269.918 183.848L271.753 184.643L273.588 185.437L286.857 154.795L285.021 154ZM271.753 184.643L269.918 183.848C269.57 184.651 268.43 184.651 268.082 183.848L266.247 184.643L264.412 185.437C266.152 189.454 271.848 189.454 273.588 185.437L271.753 184.643ZM266.247 184.643L268.082 183.848L254.814 153.205L252.979 154L251.143 154.795L264.412 185.437L266.247 184.643ZM252.979 154V152H47V154V156H252.979V154ZM47 154V152C22.1472 152 2 131.853 2 107H0H-2C-2 134.062 19.9381 156 47 156V154ZM0 107H2V47H0H-2V107H0ZM0 47H2C2 22.1472 22.1472 2 47 2V0V-2C19.938 -2 -2 19.938 -2 47H0ZM47 0V2H766V0V-2H47V0Z" fill="#0F0F0E" mask="url(#path-1-inside-1_339_2150)"/>
</svg>
