<svg width="813" height="187" viewBox="0 0 813 187" fill="none" xmlns="http://www.w3.org/2000/svg">
<mask id="path-1-inside-1_339_2012" fill="white">
<path d="M766 0C791.957 0 813 21.0426 813 47V107C813 132.957 791.957 154 766 154H204.021L190.753 184.643C189.709 187.053 186.291 187.053 185.247 184.643L171.979 154H47C21.0426 154 0 132.957 0 107V47C0 21.0426 21.0426 0 47 0H766Z"/>
</mask>
<path d="M766 0C791.957 0 813 21.0426 813 47V107C813 132.957 791.957 154 766 154H204.021L190.753 184.643C189.709 187.053 186.291 187.053 185.247 184.643L171.979 154H47C21.0426 154 0 132.957 0 107V47C0 21.0426 21.0426 0 47 0H766Z" fill="#FFC567"/>
<path d="M204.021 154V152H202.708L202.186 153.205L204.021 154ZM190.753 184.643L192.588 185.437L192.588 185.437L190.753 184.643ZM185.247 184.643L183.412 185.437L183.412 185.437L185.247 184.643ZM171.979 154L173.814 153.205L173.292 152H171.979V154ZM47 154V156V156V154ZM766 0V2C790.853 2 811 22.1472 811 47H813H815C815 19.938 793.062 -2 766 -2V0ZM813 47H811V107H813H815V47H813ZM813 107H811C811 131.853 790.853 152 766 152V154V156C793.062 156 815 134.062 815 107H813ZM766 154V152H204.021V154V156H766V154ZM204.021 154L202.186 153.205L188.918 183.848L190.753 184.643L192.588 185.437L205.857 154.795L204.021 154ZM190.753 184.643L188.918 183.848C188.57 184.651 187.43 184.651 187.082 183.848L185.247 184.643L183.412 185.437C185.152 189.454 190.848 189.454 192.588 185.437L190.753 184.643ZM185.247 184.643L187.082 183.848L173.814 153.205L171.979 154L170.143 154.795L183.412 185.437L185.247 184.643ZM171.979 154V152H47V154V156H171.979V154ZM47 154V152C22.1472 152 2 131.853 2 107H0H-2C-2 134.062 19.9381 156 47 156V154ZM0 107H2V47H0H-2V107H0ZM0 47H2C2 22.1472 22.1472 2 47 2V0V-2C19.938 -2 -2 19.938 -2 47H0ZM47 0V2H766V0V-2H47V0Z" fill="#0F0F0E" mask="url(#path-1-inside-1_339_2012)"/>
</svg>
